<?xml version="1.0" encoding="utf-8"?>
<!-- Generator: Adobe Illustrator 23.0.2, SVG Export Plug-In . SVG Version: 6.00 Build 0)  -->
<svg version="1.1" id="Layer_1"
	xmlns="http://www.w3.org/2000/svg"
	xmlns:xlink="http://www.w3.org/1999/xlink" x="0px" y="0px" viewBox="0 0 512 512" style="enable-background:new 0 0 512 512;" xml:space="preserve" width="26" height="26">
	<style type="text/css">
	.st0{stroke:#FFFFFF;stroke-width:7;stroke-miterlimit:10;}
	.st1{fill:#F4F4F4;}
	</style>
	<g>
		<g>
			<path class="st0" d="M256,18C166.5,18,93.7,90.8,93.7,180.3c0,26.9,6.7,53.5,19.5,77.1l133.9,242.2c1.8,3.2,5.2,5.2,8.9,5.2
			c3.7,0,7.1-2,8.9-5.2l134-242.3c12.7-23.5,19.4-50.2,19.4-77C418.3,90.8,345.5,18,256,18z"/>
		</g>
	</g>
	<g>
		<path class="st1" d="M236.3,221.9h-36.1c-2.4,0-4.5-1.4-5.4-3.6l-36.1-84.5c-1.7-3.9,1.2-8.2,5.4-8.2h36.1c2.4,0,4.5,1.4,5.4,3.6
		l36.1,84.5C243.4,217.5,240.5,221.9,236.3,221.9z"/>
		<path class="st1" d="M352.2,221.9h-36.1c-2.4,0-4.5-1.4-5.4-3.6l-19.3-45.1l-19.3,45.1c-0.8,1.8-2.4,3-4.2,3.4l-23.1-54.1
		l16.5-38.6c0.9-2.2,3.1-3.6,5.4-3.6H280h22.8h13.3c2.4,0,4.5,1.4,5.4,3.6l36.1,84.5C359.3,217.5,356.5,221.9,352.2,221.9z"/>
	</g>
</svg>
